<svg width="24" height="24" viewBox="0 0 24 24" fill="none" xmlns="http://www.w3.org/2000/svg">
<g id="Frame 5">
<g id="Group 1">
<circle id="Ellipse 2" cx="4.10526" cy="3.47367" r="0.947368" fill="#272926"/>
<circle id="Ellipse 3" cx="9.36852" cy="3.47367" r="0.947368" fill="#272926"/>
<circle id="Ellipse 4" cx="14.6318" cy="3.47367" r="0.947368" fill="#272926"/>
<circle id="Ellipse 5" cx="19.8947" cy="3.47367" r="0.947368" fill="#272926"/>
<path id="Vector 1 (Stroke)" fill-rule="evenodd" clip-rule="evenodd" d="M3.78947 5.05262L5.56913 5.05261L6.53045 7.61962L9.09474 7.57893L8.73474 5.05262L10.3832 5.08113L10.7368 7.61962H13.2747L13.6363 5.05262L15.286 5.08113L14.9029 7.61962H17.5023L18.464 5.05262H20.2105L18.8124 8.732L17.2005 12.8177L16.046 15.9392V17.4253H7.98676V15.9392L6.83225 12.8177L5.22041 8.732L3.78947 5.05262ZM8.74675 13.3396L9.59861 15.6429V15.7911H10.2316L9.81275 13.3396H8.74675ZM11.3053 13.3396L11.5579 15.7911H12.3158L12.5684 13.3396H11.3053ZM12.7579 11.7053H11.1789L10.9263 9.25391H13.0444L12.7579 11.7053ZM14.0969 13.3396L13.7516 15.7911H14.4342V15.6429L15.286 13.3396H14.0969ZM15.9033 11.7053H14.3272L14.6726 9.25391H16.8705L15.9033 11.7053ZM9.28421 9.25391L9.6 11.7053H8.12944L7.16232 9.25391H9.28421Z" fill="#272926"/>
<path id="Ellipse 1" d="M16.0422 18.0569C16.0422 20.1498 14.2325 21.8464 12.0001 21.8464C9.76767 21.8464 7.95796 20.1498 7.95796 18.0569H16.0422Z" fill="#272926"/>
</g>
</g>
</svg>
