<svg width="20" height="20" viewBox="0 0 20 20" fill="none" xmlns="http://www.w3.org/2000/svg">
<g id="clarity:date-line" clip-path="url(#clip0_614_347)">
<path id="Vector" d="M17.9167 3.33331H16.1111V4.44442H17.7778V16.6666H2.22222V4.44442H3.88889V3.33331H2.08333C1.95347 3.33548 1.8253 3.36322 1.70615 3.41493C1.587 3.46664 1.47921 3.54132 1.38892 3.6347C1.29864 3.72807 1.22764 3.83832 1.17997 3.95915C1.1323 4.07997 1.10891 4.209 1.11111 4.33887V16.7722C1.10891 16.9021 1.1323 17.0311 1.17997 17.1519C1.22764 17.2727 1.29864 17.383 1.38892 17.4764C1.47921 17.5698 1.587 17.6444 1.70615 17.6961C1.8253 17.7479 1.95347 17.7756 2.08333 17.7778H17.9167C18.0465 17.7756 18.1747 17.7479 18.2939 17.6961C18.413 17.6444 18.5208 17.5698 18.6111 17.4764C18.7014 17.383 18.7724 17.2727 18.82 17.1519C18.8677 17.0311 18.8911 16.9021 18.8889 16.7722V4.33887C18.8911 4.209 18.8677 4.07997 18.82 3.95915C18.7724 3.83832 18.7014 3.72807 18.6111 3.6347C18.5208 3.54132 18.413 3.46664 18.2939 3.41493C18.1747 3.36322 18.0465 3.33548 17.9167 3.33331Z" fill="#6F766E"/>
<path id="Vector_2" d="M4.44444 7.77777H5.55555V8.88888H4.44444V7.77777Z" fill="#6F766E"/>
<path id="Vector_3" d="M7.77778 7.77777H8.88889V8.88888H7.77778V7.77777Z" fill="#6F766E"/>
<path id="Vector_4" d="M11.1111 7.77777H12.2222V8.88888H11.1111V7.77777Z" fill="#6F766E"/>
<path id="Vector_5" d="M14.4444 7.77777H15.5556V8.88888H14.4444V7.77777Z" fill="#6F766E"/>
<path id="Vector_6" d="M4.44444 10.5555H5.55555V11.6667H4.44444V10.5555Z" fill="#6F766E"/>
<path id="Vector_7" d="M7.77778 10.5555H8.88889V11.6667H7.77778V10.5555Z" fill="#6F766E"/>
<path id="Vector_8" d="M11.1111 10.5555H12.2222V11.6667H11.1111V10.5555Z" fill="#6F766E"/>
<path id="Vector_9" d="M14.4444 10.5555H15.5556V11.6667H14.4444V10.5555Z" fill="#6F766E"/>
<path id="Vector_10" d="M4.44444 13.3333H5.55555V14.4444H4.44444V13.3333Z" fill="#6F766E"/>
<path id="Vector_11" d="M7.77778 13.3333H8.88889V14.4444H7.77778V13.3333Z" fill="#6F766E"/>
<path id="Vector_12" d="M11.1111 13.3333H12.2222V14.4444H11.1111V13.3333Z" fill="#6F766E"/>
<path id="Vector_13" d="M14.4444 13.3333H15.5556V14.4444H14.4444V13.3333Z" fill="#6F766E"/>
<path id="Vector_14" d="M5.55556 5.55553C5.7029 5.55553 5.84421 5.497 5.94839 5.39281C6.05258 5.28862 6.11111 5.14732 6.11111 4.99997V1.66664C6.11111 1.5193 6.05258 1.37799 5.94839 1.2738C5.84421 1.16962 5.7029 1.11108 5.55556 1.11108C5.40821 1.11108 5.26691 1.16962 5.16272 1.2738C5.05853 1.37799 5 1.5193 5 1.66664V4.99997C5 5.14732 5.05853 5.28862 5.16272 5.39281C5.26691 5.497 5.40821 5.55553 5.55556 5.55553Z" fill="#6F766E"/>
<path id="Vector_15" d="M14.4444 5.55553C14.5918 5.55553 14.7331 5.497 14.8373 5.39281C14.9415 5.28862 15 5.14732 15 4.99997V1.66664C15 1.5193 14.9415 1.37799 14.8373 1.2738C14.7331 1.16962 14.5918 1.11108 14.4444 1.11108C14.2971 1.11108 14.1558 1.16962 14.0516 1.2738C13.9474 1.37799 13.8889 1.5193 13.8889 1.66664V4.99997C13.8889 5.14732 13.9474 5.28862 14.0516 5.39281C14.1558 5.497 14.2971 5.55553 14.4444 5.55553Z" fill="#6F766E"/>
<path id="Vector_16" d="M7.22222 3.33331H12.7778V4.44442H7.22222V3.33331Z" fill="#6F766E"/>
</g>
<defs>
<clipPath id="clip0_614_347">
<rect width="20" height="20" fill="white"/>
</clipPath>
</defs>
</svg>
